<?xml version="1.0" encoding="utf-8"?>
<!-- Generator: Adobe Illustrator 16.0.3, SVG Export Plug-In . SVG Version: 6.00 Build 0)  -->
<!DOCTYPE svg PUBLIC "-//W3C//DTD SVG 1.1//EN" "http://www.w3.org/Graphics/SVG/1.1/DTD/svg11.dtd">
<svg version="1.1" id="Layer_1" xmlns="http://www.w3.org/2000/svg" xmlns:xlink="http://www.w3.org/1999/xlink" x="0px" y="0px"
	 width="792px" height="612px" viewBox="0 0 792 612" enable-background="new 0 0 792 612" xml:space="preserve">
<path fill="none" stroke="#EF7C32" stroke-width="8" stroke-miterlimit="10" d="M237.042,341.959c0,5.375-7.109,9.729-15.9,9.729
	c-8.772,0-15.895-4.354-15.895-9.729"/>
<path fill="none" stroke="#EF7C32" stroke-width="8" stroke-miterlimit="10" d="M240.035,336.421"/>
<line fill="none" stroke="#EF7C32" stroke-width="8" stroke-miterlimit="10" x1="205.248" y1="343.069" x2="205.248" y2="294.139"/>
<g>
	<g>
		<path fill="#676764" d="M207.731,291.487c-4.502-4.984-9.004-9.969-13.505-14.954c0.366,0.884,0.732,1.768,1.098,2.652
			c-0.08-9.615-0.16-19.229-0.24-28.844c-0.04-4.834-7.541-4.838-7.5,0c0.077,9.271,0.154,18.541,0.231,27.811
			c0.029,3.463,2.808,5.567,5.002,7.997c3.204,3.547,6.407,7.095,9.61,10.642C205.676,300.387,210.963,295.066,207.731,291.487
			L207.731,291.487z"/>
	</g>
</g>
<g>
	<g>
		<path fill="#676764" d="M207.864,297.59c2.917-3.529,5.835-7.059,8.752-10.588c2.181-2.638,5.5-5.373,5.47-8.992
			c-0.077-9.356-0.155-18.712-0.232-28.069c-0.04-4.834-7.54-4.838-7.5,0c0.08,9.704,0.161,19.408,0.241,29.111
			c0.366-0.884,0.732-1.768,1.098-2.652c-4.377,5.295-8.755,10.591-13.132,15.886C199.504,295.984,204.78,301.321,207.864,297.59
			L207.864,297.59z"/>
	</g>
</g>
<g>
	<g>
		<path fill="#676764" d="M204.163,277.85c0-8.19,0-16.381,0-24.571c0-4.836-7.5-4.836-7.5,0c0,8.19,0,16.381,0,24.571
			C196.663,282.686,204.163,282.686,204.163,277.85L204.163,277.85z"/>
	</g>
</g>
<g>
	<g>
		<path fill="#676764" d="M213.015,277.85c0-8.19,0-16.381,0-24.571c0-4.836-7.5-4.836-7.5,0c0,8.19,0,16.381,0,24.571
			C205.515,282.686,213.015,282.686,213.015,277.85L213.015,277.85z"/>
	</g>
</g>
<path fill="none" stroke="#EF7C32" stroke-width="8" stroke-miterlimit="10" d="M208.282,324.851"/>
<path fill="none" stroke="#EF7C32" stroke-width="8" stroke-miterlimit="10" d="M209.981,345.574"/>
<path fill="none" stroke="#EF7C32" stroke-width="8" stroke-miterlimit="10" d="M267.569,321.595"/>
<path fill="none" stroke="#EF7C32" stroke-width="8" stroke-miterlimit="10" d="M225.711,340.336"/>
<path fill="none" stroke="#EF7C32" stroke-width="8" stroke-miterlimit="10" d="M269.145,320.075"/>
<line fill="none" stroke="#EF7C32" stroke-width="8" stroke-linecap="round" stroke-miterlimit="10" x1="237.134" y1="319.606" x2="237.134" y2="343.908"/>
<g>
	<g>
		<path fill="#EF7C32" d="M233.345,296.324c0,4.254,0,8.508,0,12.762c0,4.837,7.5,4.837,7.5,0c0-4.254,0-8.508,0-12.762
			C240.845,291.488,233.345,291.488,233.345,296.324L233.345,296.324z"/>
	</g>
</g>
<path fill="none" stroke="#EF7C32" stroke-width="8" stroke-miterlimit="10" d="M263.586,266.367
	c0-5.558-3.771-10.063-13.072-10.063c-9.308,0-13.106,4.506-13.106,10.063"/>
<line fill="none" stroke="#EF7C32" stroke-width="8" stroke-linecap="round" stroke-miterlimit="10" x1="237.17" y1="264.834" x2="237.17" y2="287.594"/>
<line fill="#D82327" stroke="#EF7C32" stroke-width="8" stroke-miterlimit="10" x1="263.672" y1="321.732" x2="263.672" y2="266.242"/>
<path fill="none" stroke="#676764" stroke-width="8" stroke-miterlimit="10" d="M279.974,339.26c0,10.906-8.621,19.74-16.357,19.74
	c-7.731,0-17.145-8.834-17.145-19.74c0-10.897,9.413-19.738,17.145-19.738C271.353,319.521,279.974,328.362,279.974,339.26z"/>
<path fill="none" stroke="#EF7C32" stroke-width="8" stroke-miterlimit="10" d="M279.354,343.679c0,5.556,6.54,10.054,14.628,10.054
	c8.07,0,13.126-4.498,13.126-10.054"/>
<line fill="none" stroke="#EF7C32" stroke-width="8" stroke-miterlimit="10" x1="307.25" y1="344.019" x2="307.25" y2="312.467"/>
<path fill="none" stroke="#EF7C32" stroke-width="8" stroke-miterlimit="10" d="M292.013,347.418"/>
<path fill="none" stroke="#EF7C32" stroke-width="8" stroke-miterlimit="10" d="M275.574,342"/>
<path fill="none" stroke="#676764" stroke-width="8" stroke-miterlimit="10" d="M315.163,302.054c0,4.44-2.635,8.033-5.887,8.033
	h-3.321c-3.252,0-5.886-3.593-5.886-8.033v-41.996c0-4.438,2.634-8.032,5.886-8.032h3.321c3.252,0,5.887,3.594,5.887,8.032V302.054z
	"/>
<path fill="none" stroke="#000000" stroke-width="8" stroke-linecap="round" stroke-miterlimit="10" d="M335.519,323.91"/>
<path fill="none" stroke="#676764" stroke-width="8" stroke-linecap="round" stroke-miterlimit="10" d="M357.818,355.438
	c-14.787,0-26.773-13.512-26.773-30.18s11.986-30.18,26.773-30.18"/>
<line fill="none" stroke="#676764" stroke-width="8" stroke-linecap="round" stroke-miterlimit="10" x1="331.954" y1="325.836" x2="359.646" y2="325.612"/>
<path fill="none" stroke="#676764" stroke-width="8" stroke-linecap="round" stroke-miterlimit="10" d="M403.987,355.438
	c-14.787,0-26.773-13.512-26.773-30.18s11.986-30.18,26.773-30.18"/>
<path fill="none" stroke="#676764" stroke-width="8" stroke-linecap="round" stroke-miterlimit="10" d="M444.385,355.438
	c-14.787,0-26.773-13.512-26.773-30.18s11.986-30.18,26.773-30.18"/>
<path fill="none" stroke="#676764" stroke-width="8" stroke-linecap="round" stroke-miterlimit="10" d="M443.583,355.438
	c14.786,0,26.772-13.512,26.772-30.18s-11.986-30.18-26.772-30.18"/>
<path fill="none" stroke="#676764" stroke-width="8" stroke-linecap="round" stroke-miterlimit="10" d="M514.6,355.438
	c-14.786,0-26.772-13.512-26.772-30.18s11.986-30.18,26.772-30.18"/>
<path fill="none" stroke="#676764" stroke-width="8" stroke-linecap="round" stroke-miterlimit="10" d="M513.798,355.438
	c14.786,0,26.773-13.512,26.773-30.18s-11.987-30.18-26.773-30.18"/>
<line fill="none" stroke="#676764" stroke-width="8" stroke-linecap="round" stroke-miterlimit="10" x1="560.769" y1="293.491" x2="560.769" y2="356.854"/>
<line fill="none" stroke="#676764" stroke-width="8" stroke-linecap="round" stroke-miterlimit="10" x1="561.847" y1="327.191" x2="593.908" y2="296.609"/>
<line fill="none" stroke="#676764" stroke-width="8" stroke-linecap="round" stroke-miterlimit="10" x1="579.159" y1="312.206" x2="600" y2="357.16"/>
</svg>
